<mxfile host="www.draw.io" modified="2020-03-06T05:22:08.604Z" agent="Mozilla/5.0 (Windows NT 10.0; Win64; x64) AppleWebKit/537.36 (KHTML, like Gecko) Chrome/80.0.3987.132 Safari/537.36" etag="diLJZpVHb4nT037kvGvu" version="12.8.1" type="github">
  <diagram id="C5RBs43oDa-KdzZeNtuy" name="Page-1">
    <mxGraphModel dx="1447" dy="750" grid="1" gridSize="10" guides="1" tooltips="1" connect="1" arrows="1" fold="1" page="1" pageScale="1" pageWidth="827" pageHeight="1169" math="0" shadow="0">
      <root>
        <mxCell id="WIyWlLk6GJQsqaUBKTNV-0" />
        <mxCell id="WIyWlLk6GJQsqaUBKTNV-1" parent="WIyWlLk6GJQsqaUBKTNV-0" />
        <mxCell id="xWlfnGzNrt-8DEseAGjF-9" value="" style="edgeStyle=orthogonalEdgeStyle;rounded=0;orthogonalLoop=1;jettySize=auto;html=1;" edge="1" parent="WIyWlLk6GJQsqaUBKTNV-1" source="dcIEWkbj7qrLP5iOHdTd-0" target="dcIEWkbj7qrLP5iOHdTd-11">
          <mxGeometry relative="1" as="geometry" />
        </mxCell>
        <mxCell id="dcIEWkbj7qrLP5iOHdTd-0" value="START" style="ellipse;whiteSpace=wrap;html=1;" parent="WIyWlLk6GJQsqaUBKTNV-1" vertex="1">
          <mxGeometry x="130" y="30" width="66" height="40" as="geometry" />
        </mxCell>
        <mxCell id="xWlfnGzNrt-8DEseAGjF-30" style="edgeStyle=orthogonalEdgeStyle;rounded=0;orthogonalLoop=1;jettySize=auto;html=1;exitX=0.5;exitY=1;exitDx=0;exitDy=0;entryX=0.5;entryY=0;entryDx=0;entryDy=0;" edge="1" parent="WIyWlLk6GJQsqaUBKTNV-1" source="dcIEWkbj7qrLP5iOHdTd-4" target="xWlfnGzNrt-8DEseAGjF-28">
          <mxGeometry relative="1" as="geometry" />
        </mxCell>
        <mxCell id="dcIEWkbj7qrLP5iOHdTd-4" value="Ask for the number of kids within range 0 to 50. Ask for the number of adults within range 0 to 50. Ask&amp;nbsp;for the&lt;br&gt;&amp;nbsp;number of seniors within range 0 to 50" style="rounded=0;whiteSpace=wrap;html=1;" parent="WIyWlLk6GJQsqaUBKTNV-1" vertex="1">
          <mxGeometry x="54.5" y="475" width="215.5" height="75" as="geometry" />
        </mxCell>
        <mxCell id="dcIEWkbj7qrLP5iOHdTd-7" value="MAIN&lt;br&gt;PROCESS" style="text;html=1;align=center;verticalAlign=middle;resizable=0;points=[];autosize=1;" parent="WIyWlLk6GJQsqaUBKTNV-1" vertex="1">
          <mxGeometry x="33" y="35" width="70" height="30" as="geometry" />
        </mxCell>
        <mxCell id="xWlfnGzNrt-8DEseAGjF-22" value="" style="edgeStyle=orthogonalEdgeStyle;rounded=0;orthogonalLoop=1;jettySize=auto;html=1;" edge="1" parent="WIyWlLk6GJQsqaUBKTNV-1" source="dcIEWkbj7qrLP5iOHdTd-8" target="xWlfnGzNrt-8DEseAGjF-21">
          <mxGeometry relative="1" as="geometry" />
        </mxCell>
        <mxCell id="dcIEWkbj7qrLP5iOHdTd-8" value="Go to CALCULATE_TOTAL&lt;br&gt;_COVER_CHANGE_PROCESS and append output to reciept with total cover charge" style="rounded=0;whiteSpace=wrap;html=1;" parent="WIyWlLk6GJQsqaUBKTNV-1" vertex="1">
          <mxGeometry x="65" y="880" width="196" height="90" as="geometry" />
        </mxCell>
        <mxCell id="xWlfnGzNrt-8DEseAGjF-20" value="" style="edgeStyle=orthogonalEdgeStyle;rounded=0;orthogonalLoop=1;jettySize=auto;html=1;" edge="1" parent="WIyWlLk6GJQsqaUBKTNV-1" source="dcIEWkbj7qrLP5iOHdTd-10" target="dcIEWkbj7qrLP5iOHdTd-8">
          <mxGeometry relative="1" as="geometry" />
        </mxCell>
        <mxCell id="dcIEWkbj7qrLP5iOHdTd-10" value="Ask attendee(s) if they would like to to select either MUSICAL or theatrical Performance" style="rounded=0;whiteSpace=wrap;html=1;" parent="WIyWlLk6GJQsqaUBKTNV-1" vertex="1">
          <mxGeometry x="95" y="790" width="136" height="60" as="geometry" />
        </mxCell>
        <mxCell id="xWlfnGzNrt-8DEseAGjF-10" value="" style="edgeStyle=orthogonalEdgeStyle;rounded=0;orthogonalLoop=1;jettySize=auto;html=1;" edge="1" parent="WIyWlLk6GJQsqaUBKTNV-1" source="dcIEWkbj7qrLP5iOHdTd-11" target="xWlfnGzNrt-8DEseAGjF-1">
          <mxGeometry relative="1" as="geometry" />
        </mxCell>
        <mxCell id="dcIEWkbj7qrLP5iOHdTd-11" value="Go to time function and get time in AM/PM format from time function" style="rounded=0;whiteSpace=wrap;html=1;" parent="WIyWlLk6GJQsqaUBKTNV-1" vertex="1">
          <mxGeometry x="103" y="90" width="120" height="60" as="geometry" />
        </mxCell>
        <mxCell id="xWlfnGzNrt-8DEseAGjF-0" value="NO" style="edgeStyle=orthogonalEdgeStyle;rounded=0;orthogonalLoop=1;jettySize=auto;html=1;" edge="1" parent="WIyWlLk6GJQsqaUBKTNV-1" source="xWlfnGzNrt-8DEseAGjF-1" target="xWlfnGzNrt-8DEseAGjF-3">
          <mxGeometry relative="1" as="geometry" />
        </mxCell>
        <mxCell id="xWlfnGzNrt-8DEseAGjF-13" value="YES" style="edgeStyle=orthogonalEdgeStyle;rounded=0;orthogonalLoop=1;jettySize=auto;html=1;" edge="1" parent="WIyWlLk6GJQsqaUBKTNV-1" source="xWlfnGzNrt-8DEseAGjF-1" target="xWlfnGzNrt-8DEseAGjF-11">
          <mxGeometry relative="1" as="geometry" />
        </mxCell>
        <mxCell id="xWlfnGzNrt-8DEseAGjF-1" value="12pm&amp;nbsp;&lt;span style=&quot;color: rgb(34 , 34 , 34) ; font-family: &amp;#34;arial&amp;#34; , sans-serif ; font-size: 14px ; text-align: left ; background-color: rgb(255 , 255 , 255)&quot;&gt;≤&lt;/span&gt;&lt;br&gt;time&amp;nbsp;&lt;span style=&quot;color: rgb(34 , 34 , 34) ; font-family: &amp;#34;arial&amp;#34; , sans-serif ; font-size: 14px ; text-align: left ; background-color: rgb(255 , 255 , 255)&quot;&gt;≤&lt;/span&gt;&lt;br&gt;&amp;nbsp;4pm??" style="rhombus;whiteSpace=wrap;html=1;" vertex="1" parent="WIyWlLk6GJQsqaUBKTNV-1">
          <mxGeometry x="103" y="200" width="120" height="90" as="geometry" />
        </mxCell>
        <mxCell id="xWlfnGzNrt-8DEseAGjF-2" value="NO" style="edgeStyle=orthogonalEdgeStyle;rounded=0;orthogonalLoop=1;jettySize=auto;html=1;entryX=0;entryY=0.5;entryDx=0;entryDy=0;" edge="1" parent="WIyWlLk6GJQsqaUBKTNV-1" source="xWlfnGzNrt-8DEseAGjF-3" target="xWlfnGzNrt-8DEseAGjF-8">
          <mxGeometry relative="1" as="geometry" />
        </mxCell>
        <mxCell id="xWlfnGzNrt-8DEseAGjF-14" value="YES" style="edgeStyle=orthogonalEdgeStyle;rounded=0;orthogonalLoop=1;jettySize=auto;html=1;" edge="1" parent="WIyWlLk6GJQsqaUBKTNV-1" source="xWlfnGzNrt-8DEseAGjF-3" target="xWlfnGzNrt-8DEseAGjF-12">
          <mxGeometry relative="1" as="geometry" />
        </mxCell>
        <mxCell id="xWlfnGzNrt-8DEseAGjF-3" value="&lt;span style=&quot;white-space: normal&quot;&gt;6pm&amp;nbsp;&lt;/span&gt;&lt;span style=&quot;white-space: normal ; color: rgb(34 , 34 , 34) ; font-family: &amp;#34;arial&amp;#34; , sans-serif ; font-size: 14px ; text-align: left ; background-color: rgb(255 , 255 , 255)&quot;&gt;≤&lt;/span&gt;&lt;br style=&quot;white-space: normal&quot;&gt;&lt;span style=&quot;white-space: normal&quot;&gt;time&amp;nbsp;&lt;/span&gt;&lt;span style=&quot;white-space: normal ; color: rgb(34 , 34 , 34) ; font-family: &amp;#34;arial&amp;#34; , sans-serif ; font-size: 14px ; text-align: left ; background-color: rgb(255 , 255 , 255)&quot;&gt;≤&lt;/span&gt;&lt;br style=&quot;white-space: normal&quot;&gt;&lt;span style=&quot;white-space: normal&quot;&gt;&amp;nbsp;9pm??&lt;/span&gt;" style="rhombus;whiteSpace=wrap;html=1;" vertex="1" parent="WIyWlLk6GJQsqaUBKTNV-1">
          <mxGeometry x="280" y="200" width="120" height="90" as="geometry" />
        </mxCell>
        <mxCell id="xWlfnGzNrt-8DEseAGjF-17" value="" style="edgeStyle=orthogonalEdgeStyle;rounded=0;orthogonalLoop=1;jettySize=auto;html=1;entryX=0.5;entryY=0;entryDx=0;entryDy=0;" edge="1" parent="WIyWlLk6GJQsqaUBKTNV-1" source="xWlfnGzNrt-8DEseAGjF-8" target="xWlfnGzNrt-8DEseAGjF-16">
          <mxGeometry relative="1" as="geometry" />
        </mxCell>
        <mxCell id="xWlfnGzNrt-8DEseAGjF-8" value="Output: Sorry we&#39;re closed Right now" style="rounded=0;whiteSpace=wrap;html=1;" vertex="1" parent="WIyWlLk6GJQsqaUBKTNV-1">
          <mxGeometry x="470" y="215" width="120" height="60" as="geometry" />
        </mxCell>
        <mxCell id="xWlfnGzNrt-8DEseAGjF-18" style="edgeStyle=orthogonalEdgeStyle;rounded=0;orthogonalLoop=1;jettySize=auto;html=1;entryX=0.5;entryY=0;entryDx=0;entryDy=0;exitX=0.5;exitY=1;exitDx=0;exitDy=0;" edge="1" parent="WIyWlLk6GJQsqaUBKTNV-1" source="xWlfnGzNrt-8DEseAGjF-11" target="dcIEWkbj7qrLP5iOHdTd-4">
          <mxGeometry relative="1" as="geometry">
            <mxPoint x="163" y="420" as="sourcePoint" />
          </mxGeometry>
        </mxCell>
        <mxCell id="xWlfnGzNrt-8DEseAGjF-11" value="Set time period to &lt;b&gt;MATINE &amp;amp;&amp;nbsp;&lt;/b&gt;Display Musical &amp;amp; Theatrical Performances for &lt;b&gt;MATINE&lt;/b&gt;" style="rounded=0;whiteSpace=wrap;html=1;" vertex="1" parent="WIyWlLk6GJQsqaUBKTNV-1">
          <mxGeometry x="84.5" y="340" width="157" height="60" as="geometry" />
        </mxCell>
        <mxCell id="xWlfnGzNrt-8DEseAGjF-19" style="edgeStyle=orthogonalEdgeStyle;rounded=0;orthogonalLoop=1;jettySize=auto;html=1;entryX=0.5;entryY=0;entryDx=0;entryDy=0;exitX=0.5;exitY=1;exitDx=0;exitDy=0;" edge="1" parent="WIyWlLk6GJQsqaUBKTNV-1" source="xWlfnGzNrt-8DEseAGjF-12" target="dcIEWkbj7qrLP5iOHdTd-4">
          <mxGeometry relative="1" as="geometry">
            <mxPoint x="251.00000000000023" y="420" as="sourcePoint" />
          </mxGeometry>
        </mxCell>
        <mxCell id="xWlfnGzNrt-8DEseAGjF-12" value="Set time period to&lt;b&gt;&amp;nbsp;EVENING &lt;/b&gt;&amp;amp; Display Musical &amp;amp; Theatrical Performances for &lt;b&gt;Evening&lt;/b&gt;" style="rounded=0;whiteSpace=wrap;html=1;" vertex="1" parent="WIyWlLk6GJQsqaUBKTNV-1">
          <mxGeometry x="265" y="340" width="150" height="60" as="geometry" />
        </mxCell>
        <mxCell id="xWlfnGzNrt-8DEseAGjF-16" value="END" style="ellipse;whiteSpace=wrap;html=1;" vertex="1" parent="WIyWlLk6GJQsqaUBKTNV-1">
          <mxGeometry x="497" y="350" width="66" height="40" as="geometry" />
        </mxCell>
        <mxCell id="xWlfnGzNrt-8DEseAGjF-27" style="edgeStyle=orthogonalEdgeStyle;rounded=0;orthogonalLoop=1;jettySize=auto;html=1;exitX=1;exitY=0.5;exitDx=0;exitDy=0;entryX=0;entryY=0.5;entryDx=0;entryDy=0;" edge="1" parent="WIyWlLk6GJQsqaUBKTNV-1" source="xWlfnGzNrt-8DEseAGjF-21" target="xWlfnGzNrt-8DEseAGjF-24">
          <mxGeometry relative="1" as="geometry" />
        </mxCell>
        <mxCell id="xWlfnGzNrt-8DEseAGjF-21" value="Go to TICKET_CHARGE_PROCESS and append output to reciept total ticket charge" style="rounded=0;whiteSpace=wrap;html=1;" vertex="1" parent="WIyWlLk6GJQsqaUBKTNV-1">
          <mxGeometry x="65" y="1010" width="196" height="90" as="geometry" />
        </mxCell>
        <mxCell id="xWlfnGzNrt-8DEseAGjF-36" value="" style="edgeStyle=orthogonalEdgeStyle;rounded=0;orthogonalLoop=1;jettySize=auto;html=1;" edge="1" parent="WIyWlLk6GJQsqaUBKTNV-1" source="xWlfnGzNrt-8DEseAGjF-24" target="xWlfnGzNrt-8DEseAGjF-35">
          <mxGeometry relative="1" as="geometry" />
        </mxCell>
        <mxCell id="xWlfnGzNrt-8DEseAGjF-24" value="Add total_coverage and total ticket cost and store it as price_prior_d" style="rounded=0;whiteSpace=wrap;html=1;" vertex="1" parent="WIyWlLk6GJQsqaUBKTNV-1">
          <mxGeometry x="310" y="470" width="120" height="60" as="geometry" />
        </mxCell>
        <mxCell id="xWlfnGzNrt-8DEseAGjF-31" style="edgeStyle=orthogonalEdgeStyle;rounded=0;orthogonalLoop=1;jettySize=auto;html=1;exitX=0.5;exitY=1;exitDx=0;exitDy=0;entryX=0.5;entryY=0;entryDx=0;entryDy=0;" edge="1" parent="WIyWlLk6GJQsqaUBKTNV-1" source="xWlfnGzNrt-8DEseAGjF-28" target="xWlfnGzNrt-8DEseAGjF-29">
          <mxGeometry relative="1" as="geometry" />
        </mxCell>
        <mxCell id="xWlfnGzNrt-8DEseAGjF-28" value="Add number of seniors + children + adults and store as total_ppl" style="rounded=0;whiteSpace=wrap;html=1;" vertex="1" parent="WIyWlLk6GJQsqaUBKTNV-1">
          <mxGeometry x="103" y="585" width="120" height="60" as="geometry" />
        </mxCell>
        <mxCell id="xWlfnGzNrt-8DEseAGjF-33" value="NO" style="edgeStyle=orthogonalEdgeStyle;rounded=0;orthogonalLoop=1;jettySize=auto;html=1;exitX=0.5;exitY=1;exitDx=0;exitDy=0;entryX=0.5;entryY=0;entryDx=0;entryDy=0;" edge="1" parent="WIyWlLk6GJQsqaUBKTNV-1" source="xWlfnGzNrt-8DEseAGjF-29" target="dcIEWkbj7qrLP5iOHdTd-10">
          <mxGeometry x="-0.2162" y="17" relative="1" as="geometry">
            <mxPoint y="-1" as="offset" />
          </mxGeometry>
        </mxCell>
        <mxCell id="xWlfnGzNrt-8DEseAGjF-34" value="YES" style="edgeStyle=orthogonalEdgeStyle;rounded=0;orthogonalLoop=1;jettySize=auto;html=1;entryX=1;entryY=0.5;entryDx=0;entryDy=0;exitX=0;exitY=0.5;exitDx=0;exitDy=0;" edge="1" parent="WIyWlLk6GJQsqaUBKTNV-1" source="xWlfnGzNrt-8DEseAGjF-29" target="xWlfnGzNrt-8DEseAGjF-16">
          <mxGeometry x="-0.8685" relative="1" as="geometry">
            <Array as="points">
              <mxPoint x="20" y="718" />
              <mxPoint x="20" y="10" />
              <mxPoint x="610" y="10" />
              <mxPoint x="610" y="370" />
            </Array>
            <mxPoint y="1" as="offset" />
          </mxGeometry>
        </mxCell>
        <mxCell id="xWlfnGzNrt-8DEseAGjF-29" value="total_ppl not equal to 0??" style="rhombus;whiteSpace=wrap;html=1;" vertex="1" parent="WIyWlLk6GJQsqaUBKTNV-1">
          <mxGeometry x="78.37" y="670" width="167.75" height="95" as="geometry" />
        </mxCell>
        <mxCell id="xWlfnGzNrt-8DEseAGjF-35" value="Go to discount process" style="rounded=0;whiteSpace=wrap;html=1;" vertex="1" parent="WIyWlLk6GJQsqaUBKTNV-1">
          <mxGeometry x="310" y="570" width="120" height="60" as="geometry" />
        </mxCell>
      </root>
    </mxGraphModel>
  </diagram>
</mxfile>
